<?xml version="1.0" encoding="utf-8"?>
<svg viewBox="0 0 300 340" width="300" height="340" xmlns="http://www.w3.org/2000/svg">
  <rect x="159.753" y="71.749" width="180.493" height="62.781" rx="21.031" ry="21.031" style="stroke-linejoin: round; fill: rgb(255, 0, 0); stroke-width: 21px; visibility: hidden;" transform="matrix(1, 0, 0, 1, 0, 7.105427357601002e-15)"/>
  <path d="M 82.277 0 L 217.722 0 C 225.503 0.466 234.519 4.173 239.537 9.386 C 244.555 14.6 248.124 23.965 248.573 32.048 L 248.573 47.705 L 287.101 47.705 C 294.224 47.705 300 53.705 300 61.105 L 300 91.787 C 300 99.187 294.224 105.187 287.101 105.187 L 264.077 105.187 L 264.077 318.624 C 264.077 330.429 254.864 340 243.499 340 L 56.5 340 C 45.136 340 35.922 330.429 35.922 318.624 L 35.922 105.187 L 12.899 105.187 C 5.775 105.187 0 99.187 0 91.787 L 0 61.105 C 0 53.705 5.775 47.705 12.899 47.705 L 51.426 47.705 L 51.426 32.048 C 51.874 23.965 55.443 14.6 60.462 9.386 C 65.48 4.173 74.495 0.466 82.277 0 Z M 82.277 21.345 C 78.694 20.879 71.525 28.327 71.973 32.048 L 71.973 47.705 L 228.026 47.705 L 228.026 32.048 C 228.474 28.327 221.305 20.879 217.722 21.345 L 82.277 21.345 Z M 79.942 118.061 L 79.942 295.919 C 79.942 299.97 83.103 303.255 87.004 303.255 L 95.452 303.255 C 99.351 303.255 102.513 299.97 102.513 295.919 L 102.513 118.061 C 102.513 114.009 99.351 110.725 95.452 110.725 L 87.004 110.725 C 83.103 110.725 79.942 114.009 79.942 118.061 Z M 138.714 118.061 L 138.714 295.919 C 138.714 299.97 141.876 303.255 145.775 303.255 L 154.223 303.255 C 158.124 303.255 161.285 299.97 161.285 295.919 L 161.285 118.061 C 161.285 114.009 158.124 110.725 154.223 110.725 L 145.775 110.725 C 141.876 110.725 138.714 114.009 138.714 118.061 Z M 197.487 118.971 L 197.487 296.831 C 197.487 300.882 200.648 304.166 204.548 304.166 L 212.996 304.166 C 216.896 304.166 220.058 300.882 220.058 296.831 L 220.058 118.971 C 220.058 114.92 216.896 111.636 212.996 111.636 L 204.548 111.636 C 200.648 111.636 197.487 114.92 197.487 118.971 Z" style="fill: rgb(122, 9, 9);" transform="matrix(1, 0, 0, 1, 0, 7.105427357601002e-15)"/>
</svg>