<?xml version="1.0" encoding="utf-8"?>
<svg viewBox="0 0 45 27" width="45px" height="27px" xmlns="http://www.w3.org/2000/svg">
  <g transform="matrix(0.1204570084810257, 0, 0, 0.12033500522375107, -7.6141967773437464, -16.58370018005371)" style="">
    <path d="M 130.694 362.187 C 93.424 362.187 63.211 331.974 63.211 294.704 C 63.211 257.434 93.424 227.221 130.694 227.221 C 133.659 227.221 136.58 227.412 139.444 227.783 C 149.753 176.466 195.078 137.813 249.431 137.813 C 294.583 137.813 333.506 164.488 351.299 202.938 C 353.202 202.802 355.124 202.733 357.062 202.733 C 401.094 202.733 436.789 238.428 436.789 282.46 C 436.789 326.492 401.094 362.187 357.062 362.187 C 338.688 362.187 150.907 362.187 130.694 362.187 Z" style="fill: rgb(0, 102, 255);"/>
    <path d="M 250.031 174.338 L 250.031 190.676 C 232.24 190.668 214.447 197.451 200.873 211.025 C 173.741 238.157 173.741 282.147 200.873 309.279 C 200.879 309.285 200.884 309.29 200.89 309.296 L 210.291 299.895 C 210.285 299.889 210.28 299.884 210.274 299.878 C 188.333 277.937 188.333 242.367 210.274 220.426 C 221.252 209.448 235.643 203.963 250.031 203.971 L 250.031 219.977 L 275.688 197.158 L 250.031 174.338 Z M 250.031 345.966 L 250.031 329.628 C 267.801 329.62 285.569 322.837 299.127 309.279 C 326.259 282.147 326.259 238.157 299.127 211.025 C 299.121 211.019 299.116 211.014 299.11 211.008 L 289.709 220.409 C 289.715 220.415 289.72 220.42 289.726 220.426 C 311.667 242.367 311.667 277.937 289.726 299.878 C 278.764 310.84 264.399 316.326 250.031 316.334 L 250.031 300.327 L 224.374 323.146 L 250.031 345.966 Z" style="fill: rgb(255, 255, 255); stroke: rgb(255, 255, 255); stroke-width: 0px;" transform="matrix(-1, 0, 0, -1, 500.000031, 520.303994)"/>
  </g>
</svg>