<?xml version="1.0" encoding="utf-8"?>
<svg xmlns="http://www.w3.org/2000/svg" viewBox="0 0 20 17" xmlns:bx="https://boxy-svg.com" width="20px" height="17px"><defs><radialGradient gradientUnits="userSpaceOnUse" cx="6.53995" cy="3.64069" r="10.70831" id="gradient-1" gradientTransform="matrix(1.239417, 0.005156, -0.003627, 0.999992, -2.398423, -0.033692)"><stop offset="0" style="stop-color: rgb(132, 242, 255);"/><stop offset="0.60553" style="stop-color: rgb(57, 233, 255);"/><stop offset="1" style="stop-color: rgb(0, 207, 232);"/></radialGradient><bx:export><bx:file format="svg"/></bx:export></defs><g transform="matrix(1, 0, 0, 0.980981, 0, 0)"><path style="fill: url(&quot;#gradient-1&quot;); stroke: rgb(0, 56, 112); stroke-width: 0.2px; transform-box: fill-box; transform-origin: 50% 50%;" d="M 18.3554 8.15345 L 10.0453 17.3296 L 1.73982 8.11045 L 0 2.59823 L 3.89859 0.32222 L 10.0042 0.00001 L 16.0986 0.32222 L 19.9971 2.59823 L 18.3554 8.15345 Z"/><ellipse style="fill: rgba(255, 255, 255, 0.686); transform-box: fill-box; transform-origin: 50% 50%;" cx="7.65066" cy="2.7658" rx="0.55312" ry="1.34071" transform="matrix(0.707107, 0.707107, -0.707107, 0.707107, -4.048306, -0.515216)"/><path style="fill: none; stroke: rgb(0, 56, 112); stroke-width: 0.2px; transform-box: fill-box; transform-origin: 50% 50%;" d="M 1.73517 8.15343 L 4.06947 4.32892 L 10.0453 17.3295"/><path style="fill: none; stroke: rgb(0, 56, 112); stroke-width: 0.2px; transform-box: fill-box; transform-origin: 50% 50%;" d="M 3.88282 0.3223 L 4.06947 4.3289 L 10.0453 0.00001"/><path style="fill: none; stroke: rgb(0, 56, 112); stroke-width: 0.2px; transform-box: fill-box; transform-origin: 50% 50%;" d="M 10.0453 17.3296 L 8.3236 4.96016 L 10.0453 0.00002"/><path style="fill: none; stroke: rgb(0, 56, 112); stroke-width: 0.2px; transform-box: fill-box; transform-origin: 50% 50%;" d="M 19.9654 4.97942 L 15.937 3.24072 L 11.6475 2.63622 L 8.28618 2.63622 L 3.99655 3.24072 L 0.04672 4.97942" transform="matrix(-1, 0, 0, -1, 0.000006, 0.000003)"/><path style="fill: none; stroke: rgb(0, 56, 112); stroke-width: 0.2px; transform-box: fill-box; transform-origin: 50% 50%;" d="M 10.0453 13.505 L 12.3796 17.3295 L 18.3554 4.32893" transform="matrix(-1, 0, 0, -1, -0.000006, 0)"/><path style="fill: none; stroke: rgb(0, 56, 112); stroke-width: 0.2px; transform-box: fill-box; transform-origin: 50% 50%;" d="M 10.0453 4.00671 L 10.232 0.00001 L 16.2078 4.32891" transform="matrix(-1, 0, 0, -1, 0.000004, 0.000002)"/><path style="fill: none; stroke: rgb(0, 56, 112); stroke-width: 0.2px; transform-box: fill-box; transform-origin: 50% 50%;" d="M 11.767 0.00002 L 10.0453 12.3693 L 11.767 17.3295" transform="matrix(-1, 0, 0, -1, 0.000002, 0.000002)"/></g></svg>