<?xml version="1.0" encoding="utf-8"?>
<svg viewBox="0 0 50 35" width="50px" height="35px" xmlns="http://www.w3.org/2000/svg">
  <path d="M 31.074 18.201 C 31.074 21.556 28.355 24.275 25 24.275 C 23.62 24.275 22.346 23.814 21.327 23.038 L 29.838 14.527 C 30.614 15.547 31.074 16.82 31.074 18.201 Z M 18.927 18.201 C 18.927 14.847 21.646 12.126 25 12.126 C 25.613 12.126 26.204 12.218 26.76 12.386 L 19.185 19.961 C 19.018 19.404 18.927 18.812 18.927 18.201 Z M 25 9.035 C 19.938 9.035 15.835 13.139 15.835 18.201 C 15.835 19.686 16.187 21.09 16.816 22.331 L 12.231 26.916 C 5.328 23.237 0.004 18.201 0.004 18.201 C 0.004 18.201 13.217 5.703 25 5.703 C 27.361 5.703 29.781 6.204 32.139 7.008 L 29.13 10.016 C 27.89 9.388 26.486 9.035 25 9.035 Z M 25 27.367 C 30.063 27.367 34.166 23.263 34.166 18.201 C 34.166 15.966 33.366 13.917 32.037 12.327 L 35.846 8.519 C 43.658 12.205 49.996 18.201 49.996 18.201 C 49.996 18.201 36.784 30.699 25 30.699 C 21.933 30.699 18.768 29.852 15.765 28.598 L 19.127 25.238 C 20.718 26.567 22.765 27.367 25 27.367 Z" style="fill: rgb(237, 177, 255);"/>
  <rect x="14.111" y="7.911" width="2.675" height="40.78" style="fill: rgb(237, 177, 255); transform-origin: 15.448px 28.301px;" transform="matrix(-0.707107007504, -0.707107007504, 0.707107007504, -0.707107007504, 8.852170473343, -10.800644921864)"/>
</svg>