<?xml version="1.0" encoding="utf-8"?>
<svg viewBox="0 0 500 500" width="500" height="500" xmlns="http://www.w3.org/2000/svg">
  <path d="M 341.672 250 C 341.672 300.629 300.629 341.672 250 341.672 C 199.371 341.672 158.328 300.629 158.328 250 C 158.328 199.371 199.371 158.328 250 158.328 C 300.629 158.328 341.672 199.371 341.672 250 Z M 250.001 375 C 367.852 375 500 250 500 250 C 500 250 367.852 125 250.001 125 C 132.149 125 0 250 0 250 C 0 250 132.149 375 250.001 375 Z" style="" transform="matrix(1, 0, 0, 1, 0, -1.4210854715202004e-14)"/>
  <ellipse style="" cx="250" cy="250" rx="60.747" ry="60.747" transform="matrix(1, 0, 0, 1, 0, -1.4210854715202004e-14)"/>
</svg>