<?xml version="1.0" encoding="utf-8"?>
<svg viewBox="0 0 500 500" width="500" height="500" xmlns="http://www.w3.org/2000/svg">
  <path d="M 310.747 250 C 310.747 283.55 283.55 310.747 250 310.747 C 236.192 310.747 223.461 306.141 213.258 298.381 L 298.381 213.258 C 306.141 223.461 310.747 236.192 310.747 250 Z M 189.253 250 C 189.253 216.45 216.45 189.253 250 189.253 C 256.122 189.253 262.033 190.159 267.605 191.843 L 191.843 267.605 C 190.159 262.033 189.253 256.122 189.253 250 Z M 250 158.328 C 199.371 158.328 158.328 199.371 158.328 250 C 158.328 264.86 161.864 278.895 168.14 291.308 L 122.289 337.159 C 53.249 300.368 0 250 0 250 C 0 250 132.149 125 250.001 125 C 273.619 125 297.811 130.02 321.399 138.049 L 291.308 168.14 C 278.895 161.864 264.86 158.328 250 158.328 Z M 250 341.672 C 300.629 341.672 341.672 300.629 341.672 250 C 341.672 227.649 333.673 207.166 320.381 191.258 L 358.471 153.168 C 436.603 190.032 500 250 500 250 C 500 250 367.852 375 250.001 375 C 219.322 375 187.674 366.529 157.641 353.998 L 191.258 320.381 C 207.166 333.673 227.649 341.672 250 341.672 Z" style="fill: #808080;" transform="matrix(1, 0, 0, 1, 0, -1.4210854715202004e-14)"/>
  <rect x="141.127" y="79.122" width="26.757" height="407.86" style="fill: #808080; transform-origin: 154.506px 283.052px;" transform="matrix(0.707107007504, 0.707107007504, -0.707107007504, 0.707107007504, 88.494901683659, -40.052241649813)"/>
</svg>