<?xml version="1.0" encoding="utf-8"?>
<svg xmlns="http://www.w3.org/2000/svg" viewBox="0 0 50 50" xmlns:bx="https://boxy-svg.com" width="50px" height="50px"><defs><bx:export><bx:file format="svg"/></bx:export></defs><g transform="matrix(0.1, 0, 0, 0.1, 0.000045, 0.000011)"><path d="M 49.9999 299.986 C 22.3858 299.986 0.00005 277.603 0.00005 249.993 C 0.00005 222.383 22.3858 200 49.9999 200 C 50.6698 200 51.3366 200.013 52.0001 200.039 L 52.0001 200 L 452 200 L 452 200.039 C 478.687 201.089 500 223.052 500 249.993 C 500 276.934 478.687 298.897 452 299.947 L 452 300 L 52.0001 300 L 52.0001 299.947 C 51.3366 299.973 50.6698 299.986 49.9999 299.986 Z" style="fill: rgb(255, 255, 255);"/><path d="M 49.9999 299.986 C 22.3858 299.986 0.00005 277.603 0.00005 249.993 C 0.00005 222.383 22.3858 200 49.9999 200 C 50.6698 200 51.3366 200.013 52.0001 200.039 L 52.0001 200 L 452 200 L 452 200.039 C 478.687 201.089 500 223.052 500 249.993 C 500 276.934 478.687 298.897 452 299.947 L 452 300 L 52.0001 300 L 52.0001 299.947 C 51.3366 299.973 50.6698 299.986 49.9999 299.986 Z" style="fill: rgb(255, 255, 255); transform-box: fill-box; transform-origin: 50% 50%;" transform="matrix(0, -1, 1, 0, 0, 0)"/></g></svg>